<svg width="100" height="100" viewBox="0 0 100 100" fill="none" xmlns="http://www.w3.org/2000/svg">
<path fill-rule="evenodd" clip-rule="evenodd" d="M71.997 51.999H67.999C66.894 51.999 65.999 51.104 65.999 50C65.999 48.896 66.894 48 67.999 48H71.997C73.102 48 73.997 48.896 73.997 50C73.997 51.104 73.103 51.999 71.997 51.999ZM64.142 38.688C63.361 39.469 62.093 39.469 61.314 38.688C60.533 37.907 60.533 36.641 61.314 35.86L64.142 33.032C64.921 32.251 66.189 32.251 66.97 33.032C67.749 33.813 67.749 35.079 66.97 35.86L64.142 38.688ZM50.001 61.998C43.374 61.998 38.001 56.626 38.001 50C38.001 43.373 43.373 38.001 50.001 38.001C56.628 38.001 61.999 43.373 61.999 50C61.999 56.626 56.628 61.998 50.001 61.998ZM50.001 42.001C45.583 42.001 42.001 45.582 42.001 50C42.001 54.417 45.584 57.999 50.001 57.999C54.418 57.999 57.999 54.417 57.999 50C57.999 45.582 54.419 42.001 50.001 42.001ZM50.001 34.002C48.896 34.002 48.001 33.106 48.001 32.002V28.003C48.001 26.899 48.896 26.003 50.001 26.003C51.105 26.003 52.001 26.899 52.001 28.003V32.002C52.001 33.106 51.104 34.002 50.001 34.002ZM35.86 38.688L33.032 35.86C32.251 35.079 32.251 33.813 33.032 33.032C33.813 32.251 35.079 32.251 35.86 33.032L38.688 35.86C39.469 36.641 39.469 37.907 38.688 38.688C37.907 39.469 36.641 39.469 35.86 38.688ZM34.002 50C34.002 51.104 33.106 51.999 32.002 51.999H28.002C26.898 51.999 26.003 51.104 26.003 50C26.003 48.896 26.899 48 28.002 48H32.002C33.107 48 34.002 48.896 34.002 50ZM35.86 61.312C36.641 60.532 37.907 60.532 38.688 61.312C39.469 62.093 39.469 63.36 38.688 64.14L35.86 66.968C35.079 67.749 33.813 67.749 33.032 66.968C32.251 66.188 32.251 64.921 33.032 64.14L35.86 61.312ZM50.001 65.998C51.105 65.998 52.001 66.893 52.001 67.997V71.997C52.001 73.101 51.105 73.997 50.001 73.997C48.896 73.997 48.001 73.101 48.001 71.997V67.997C48.001 66.893 48.896 65.998 50.001 65.998ZM64.142 61.312L66.97 64.14C67.749 64.921 67.749 66.188 66.97 66.968C66.189 67.749 64.921 67.749 64.142 66.968L61.314 64.14C60.533 63.36 60.533 62.093 61.314 61.312C62.093 60.531 63.36 60.531 64.142 61.312Z" fill="white"/>
</svg>
