<svg width="100" height="100" viewBox="0 0 100 100" fill="none" xmlns="http://www.w3.org/2000/svg">
<path fill-rule="evenodd" clip-rule="evenodd" d="M59.999 65.64C59.733 65.64 59.385 65.64 58.999 65.64C58.999 64.268 58.68 62.898 58.056 61.64C58.833 61.64 59.507 61.64 59.999 61.64C64.417 61.64 67.998 58.06 67.998 53.642C67.998 49.224 64.417 45.643 59.999 45.643C58.399 45.643 56.916 46.124 55.665 46.933C54.434 41.617 49.692 37.644 44.001 37.644C37.374 37.644 32.003 43.016 32.003 49.642C32.003 55.595 36.342 60.521 42.026 61.464C41.389 62.681 41.057 64.013 41.014 65.351C33.608 63.952 28.002 57.456 28.002 49.642C28.002 40.807 35.164 33.644 44 33.644C50.004 33.644 55.229 36.956 57.965 41.848C58.629 41.734 59.302 41.643 59.998 41.643C66.625 41.643 71.996 47.015 71.996 53.642C71.996 60.269 66.626 65.64 59.999 65.64ZM50.001 58.569L53.536 62.104C55.487 64.057 55.487 67.222 53.536 69.174C51.583 71.127 48.417 71.127 46.466 69.174C44.513 67.222 44.513 64.057 46.466 62.104L50.001 58.569Z" fill="white"/>
</svg>
