<svg width="100" height="100" viewBox="0 0 100 100" fill="none" xmlns="http://www.w3.org/2000/svg">
<path fill-rule="evenodd" clip-rule="evenodd" d="M79.941 43.642H75.941C74.837 43.642 73.941 42.747 73.941 41.642C73.941 40.538 74.837 39.642 75.941 39.642H79.941C81.045 39.642 81.941 40.538 81.941 41.642C81.941 42.748 81.045 43.642 79.941 43.642ZM72.084 30.33C71.303 31.111 70.037 31.111 69.256 30.33C68.475 29.55 68.475 28.283 69.256 27.502L72.084 24.674C72.865 23.894 74.131 23.894 74.912 24.674C75.693 25.455 75.693 26.722 74.912 27.502L72.084 30.33ZM69.137 45.937C70.887 48.021 71.942 50.707 71.942 53.641C71.942 58.864 68.6 63.293 63.944 64.942V60.561C66.333 59.178 67.944 56.6 67.944 53.641C67.944 49.224 64.362 45.642 59.944 45.642C58.344 45.642 56.86 46.122 55.61 46.933C54.38 41.616 49.637 37.643 43.946 37.643C37.319 37.643 31.948 43.015 31.948 49.641C31.948 53.191 33.499 56.369 35.948 58.566V63.482C31.171 60.714 27.948 55.56 27.948 49.641C27.948 40.806 35.11 33.644 43.946 33.644C45.518 33.644 47.036 33.875 48.469 34.298C50.664 31.471 54.086 29.644 57.944 29.644C64.571 29.644 69.942 35.015 69.942 41.642C69.941 43.158 69.65 44.602 69.137 45.937ZM57.943 33.644C55.732 33.644 53.728 34.542 52.281 35.994C54.621 37.429 56.566 39.446 57.91 41.848C58.574 41.735 59.248 41.643 59.943 41.643C62.068 41.643 64.062 42.202 65.793 43.17C65.889 42.676 65.943 42.166 65.943 41.643C65.943 37.224 62.361 33.644 57.943 33.644ZM57.943 25.644C56.839 25.644 55.943 24.749 55.943 23.644V19.645C55.943 18.541 56.839 17.646 57.943 17.646C59.048 17.646 59.943 18.541 59.943 19.645V23.644C59.943 24.75 59.049 25.644 57.943 25.644ZM43.803 30.33L40.975 27.502C40.196 26.722 40.196 25.455 40.975 24.674C41.756 23.894 43.024 23.894 43.803 24.674L46.631 27.502C47.412 28.283 47.412 29.55 46.631 30.33C45.85 31.111 44.584 31.111 43.803 30.33ZM41.945 53.641C43.05 53.641 43.945 54.537 43.945 55.641V71.639C43.945 72.744 43.05 73.639 41.945 73.639C40.841 73.639 39.945 72.744 39.945 71.639V55.641C39.945 54.537 40.842 53.641 41.945 53.641ZM49.945 57.641C51.049 57.641 51.945 58.536 51.945 59.641V75.639C51.945 76.743 51.049 77.639 49.945 77.639C48.84 77.639 47.945 76.743 47.945 75.639V59.641C47.945 58.535 48.84 57.641 49.945 57.641ZM57.943 53.641C59.048 53.641 59.943 54.537 59.943 55.641V71.639C59.943 72.744 59.048 73.639 57.943 73.639C56.839 73.639 55.943 72.744 55.943 71.639V55.641C55.943 54.537 56.84 53.641 57.943 53.641Z" fill="white"/>
</svg>
