<svg width="100" height="100" viewBox="0 0 100 100" fill="none" xmlns="http://www.w3.org/2000/svg">
<path fill-rule="evenodd" clip-rule="evenodd" d="M79.996 43.642H75.997C74.893 43.642 73.997 42.747 73.997 41.642C73.997 40.538 74.893 39.642 75.997 39.642H79.996C81.1 39.642 81.996 40.538 81.996 41.642C81.996 42.748 81.101 43.642 79.996 43.642ZM72.14 30.33C71.359 31.111 70.093 31.111 69.312 30.33C68.531 29.55 68.531 28.283 69.312 27.502L72.14 24.674C72.921 23.894 74.187 23.894 74.968 24.674C75.749 25.455 75.749 26.722 74.968 27.502L72.14 30.33ZM69.192 45.938C70.94 48.022 71.997 50.708 71.997 53.641C71.997 60.268 66.626 65.639 59.999 65.639C59.733 65.639 59.385 65.639 58.999 65.639C58.999 64.268 58.68 62.897 58.056 61.641C58.833 61.641 59.507 61.641 59.999 61.641C64.417 61.641 67.998 58.059 67.998 53.641C67.998 49.223 64.417 45.643 59.999 45.643C58.398 45.643 56.915 46.123 55.665 46.934C54.434 41.616 49.692 37.643 44.001 37.643C37.374 37.643 32.003 43.015 32.003 49.641C32.003 51.047 32.257 52.389 32.7 53.641H32.695C34.132 57.694 37.682 60.745 42.026 61.465C41.389 62.68 41.057 64.012 41.014 65.352C34.918 64.2 30.05 59.592 28.516 53.641H28.527C28.197 52.362 28.003 51.026 28.003 49.641C28.003 40.807 35.165 33.644 44.001 33.644C45.573 33.644 47.09 33.875 48.524 34.298C50.719 31.471 54.141 29.644 57.999 29.644C64.626 29.644 69.997 35.015 69.997 41.642C69.997 43.158 69.705 44.602 69.192 45.938ZM57.999 33.644C55.786 33.644 53.784 34.542 52.337 35.994C54.677 37.429 56.622 39.446 57.966 41.848C58.63 41.735 59.302 41.643 59.999 41.643C62.124 41.643 64.117 42.202 65.849 43.17C65.945 42.676 65.998 42.166 65.998 41.643C65.998 37.224 62.417 33.644 57.999 33.644ZM57.999 25.644C56.895 25.644 55.999 24.749 55.999 23.644V19.645C55.999 18.541 56.895 17.646 57.999 17.646C59.103 17.646 59.999 18.541 59.999 19.645V23.644C59.999 24.75 59.104 25.644 57.999 25.644ZM43.858 30.33L41.03 27.502C40.249 26.722 40.249 25.455 41.03 24.674C41.811 23.894 43.077 23.894 43.858 24.674L46.686 27.502C47.467 28.283 47.467 29.55 46.686 30.33C45.905 31.111 44.64 31.111 43.858 30.33ZM50 58.57L53.535 62.105C55.487 64.056 55.487 67.222 53.535 69.173C51.583 71.126 48.417 71.126 46.465 69.173C44.513 67.222 44.513 64.056 46.465 62.105L50 58.57Z" fill="white"/>
</svg>
