<svg width="100" height="100" viewBox="0 0 100 100" fill="none" xmlns="http://www.w3.org/2000/svg">
<path fill-rule="evenodd" clip-rule="evenodd" d="M59.999 65.641C59.719 65.641 59.35 65.641 58.937 65.641L62.522 61.229C65.703 60.172 67.999 57.176 67.999 53.641C67.999 49.223 64.418 45.643 60 45.643C58.399 45.643 56.917 46.123 55.667 46.933C54.435 41.617 49.693 37.643 44.002 37.643C37.376 37.643 32.004 43.015 32.004 49.643C32.004 55.089 35.636 59.681 40.608 61.147L39.259 64.924C32.739 62.903 28.004 56.826 28.004 49.642C28.004 40.807 35.167 33.643 44.002 33.643C50.006 33.643 55.231 36.955 57.967 41.847C58.631 41.733 59.304 41.642 60 41.642C66.627 41.642 71.999 47.013 71.999 53.64C71.999 60.267 66.626 65.641 59.999 65.641ZM48.001 51.641H57.999L52 61.641H58.999L46.001 77.639L49.601 65.641H43.001L48.001 51.641Z" fill="white"/>
</svg>
