<svg width="100" height="100" viewBox="0 0 100 100" fill="none" xmlns="http://www.w3.org/2000/svg">
<path fill-rule="evenodd" clip-rule="evenodd" d="M79.996 43.642H75.997C74.893 43.642 73.997 42.747 73.997 41.642C73.997 40.538 74.893 39.642 75.997 39.642H79.996C81.1 39.642 81.996 40.538 81.996 41.642C81.996 42.748 81.101 43.642 79.996 43.642ZM72.14 30.33C71.359 31.111 70.093 31.111 69.312 30.33C68.531 29.549 68.531 28.283 69.312 27.502L72.14 24.674C72.921 23.893 74.187 23.893 74.968 24.674C75.748 25.455 75.748 26.721 74.968 27.502L72.14 30.33ZM69.192 45.937C70.534 47.537 71.463 49.492 71.825 51.641H71.817C71.926 52.293 71.997 52.959 71.997 53.641C71.997 60.268 66.625 65.641 59.999 65.641C59.719 65.641 59.35 65.641 58.937 65.641L62.521 61.229C65.702 60.172 67.999 57.176 67.999 53.641C67.999 52.95 67.901 52.282 67.736 51.641C66.847 48.193 63.725 45.642 60 45.642C58.399 45.642 56.917 46.122 55.666 46.933C54.435 41.617 49.693 37.642 44.002 37.642C37.375 37.642 32.003 43.015 32.003 49.642C32.003 50.324 32.073 50.99 32.184 51.641H32.17C32.934 56.19 36.258 59.864 40.608 61.147L39.258 64.924C33.355 63.094 28.928 57.934 28.142 51.641C28.06 50.984 28.004 50.32 28.004 49.642C28.004 40.806 35.166 33.643 44.002 33.643C45.574 33.643 47.091 33.875 48.525 34.298C50.72 31.47 54.143 29.644 58 29.644C64.627 29.644 69.999 35.015 69.999 41.642C69.998 43.158 69.705 44.601 69.192 45.937ZM57.999 33.644C55.787 33.644 53.784 34.542 52.337 35.995C54.677 37.43 56.622 39.446 57.966 41.848C58.63 41.735 59.303 41.643 59.999 41.643C62.124 41.643 64.117 42.202 65.849 43.17C65.945 42.676 65.998 42.166 65.998 41.643C65.998 37.225 62.417 33.644 57.999 33.644ZM57.999 25.645C56.895 25.645 55.999 24.749 55.999 23.645V19.646C55.999 18.542 56.895 17.646 57.999 17.646C59.103 17.646 59.999 18.542 59.999 19.646V23.645C59.999 24.749 59.104 25.645 57.999 25.645ZM43.858 30.33L41.031 27.502C40.25 26.721 40.25 25.455 41.031 24.674C41.811 23.893 43.078 23.893 43.858 24.674L46.686 27.502C47.467 28.283 47.467 29.549 46.686 30.33C45.906 31.111 44.64 31.111 43.858 30.33ZM48 51.641H57.999L52 61.641H58.999L46.001 77.639L49.601 65.641H43.001L48 51.641Z" fill="white"/>
</svg>
