<svg width="100" height="100" viewBox="0 0 100 100" fill="none" xmlns="http://www.w3.org/2000/svg">
<path fill-rule="evenodd" clip-rule="evenodd" d="M63.943 64.941V60.56C66.332 59.177 67.943 56.599 67.943 53.64C67.943 49.223 64.361 45.641 59.943 45.641C58.343 45.641 56.861 46.121 55.61 46.932C54.379 41.615 49.636 37.642 43.945 37.642C37.319 37.642 31.947 43.014 31.947 49.64C31.947 53.19 33.498 56.368 35.947 58.565V63.481C31.17 60.713 27.947 55.559 27.947 49.64C27.947 40.805 35.11 33.643 43.945 33.643C49.949 33.643 55.174 36.954 57.91 41.846C58.574 41.733 59.248 41.641 59.943 41.641C66.57 41.641 71.942 47.013 71.942 53.64C71.942 58.863 68.601 63.293 63.943 64.941ZM41.946 53.641C43.05 53.641 43.945 54.537 43.945 55.641V71.639C43.945 72.744 43.05 73.639 41.946 73.639C40.842 73.639 39.946 72.744 39.946 71.639V55.641C39.946 54.537 40.842 53.641 41.946 53.641ZM49.945 57.641C51.049 57.641 51.945 58.536 51.945 59.641V75.639C51.945 76.743 51.049 77.639 49.945 77.639C48.841 77.639 47.945 76.743 47.945 75.639V59.641C47.945 58.535 48.841 57.641 49.945 57.641ZM57.944 53.641C59.048 53.641 59.943 54.537 59.943 55.641V71.639C59.943 72.744 59.048 73.639 57.944 73.639C56.84 73.639 55.944 72.744 55.944 71.639V55.641C55.944 54.537 56.84 53.641 57.944 53.641Z" fill="white"/>
</svg>
