<svg width="100" height="100" viewBox="0 0 100 100" fill="none" xmlns="http://www.w3.org/2000/svg">
<path fill-rule="evenodd" clip-rule="evenodd" d="M63.943 64.941V60.56C66.33 59.175 67.941 56.599 67.941 53.64C67.941 49.222 64.361 45.64 59.943 45.64C58.341 45.64 56.859 46.121 55.609 46.931C54.377 41.615 49.636 37.641 43.945 37.641C37.318 37.641 31.947 43.013 31.947 49.64C31.947 53.189 33.496 56.369 35.945 58.566V63.48C31.168 60.712 27.947 55.558 27.947 49.64C27.947 40.804 35.109 33.642 43.945 33.642C49.949 33.642 55.174 36.954 57.91 41.845C58.574 41.732 59.246 41.64 59.943 41.64C66.57 41.64 71.941 47.013 71.941 53.64C71.941 58.861 68.6 63.293 63.943 64.941ZM41.945 53.641C43.049 53.641 43.945 54.536 43.945 55.641V59.639C43.945 60.744 43.049 61.639 41.945 61.639C40.84 61.639 39.945 60.744 39.945 59.639V55.641C39.945 54.535 40.84 53.641 41.945 53.641ZM41.945 65.639C43.049 65.639 43.945 66.534 43.945 67.639V71.637C43.945 72.742 43.049 73.637 41.945 73.637C40.84 73.637 39.945 72.742 39.945 71.637V67.639C39.945 66.533 40.84 65.639 41.945 65.639ZM49.943 57.639C51.048 57.639 51.943 58.535 51.943 59.639V63.639C51.943 64.743 51.048 65.639 49.943 65.639C48.839 65.639 47.945 64.743 47.945 63.639V59.639C47.945 58.535 48.84 57.639 49.943 57.639ZM49.943 69.639C51.048 69.639 51.943 70.534 51.943 71.637V75.637C51.943 76.742 51.048 77.637 49.943 77.637C48.839 77.637 47.945 76.742 47.945 75.637V71.637C47.945 70.533 48.84 69.639 49.943 69.639ZM57.943 53.641C59.047 53.641 59.943 54.536 59.943 55.641V59.639C59.943 60.744 59.047 61.639 57.943 61.639C56.838 61.639 55.943 60.744 55.943 59.639V55.641C55.943 54.535 56.838 53.641 57.943 53.641ZM57.943 65.639C59.047 65.639 59.943 66.534 59.943 67.639V71.637C59.943 72.742 59.047 73.637 57.943 73.637C56.838 73.637 55.943 72.742 55.943 71.637V67.639C55.943 66.533 56.838 65.639 57.943 65.639Z" fill="white"/>
</svg>
