<svg width="100" height="100" viewBox="0 0 100 100" fill="none" xmlns="http://www.w3.org/2000/svg">
<path fill-rule="evenodd" clip-rule="evenodd" d="M79.941 45.641H75.941C74.837 45.641 73.941 44.746 73.941 43.641C73.941 42.537 74.837 41.643 75.941 41.643H79.941C81.045 41.643 81.941 42.538 81.941 43.641C81.941 44.746 81.045 45.641 79.941 45.641ZM72.084 32.329C71.303 33.11 70.037 33.11 69.256 32.329C68.475 31.549 68.475 30.282 69.256 29.502L72.084 26.674C72.865 25.893 74.131 25.893 74.912 26.674C75.693 27.454 75.693 28.721 74.912 29.502L72.084 32.329ZM69.137 47.936C70.886 50.022 71.943 52.706 71.943 55.641C71.943 62.266 66.571 67.639 59.944 67.639C57.169 67.639 47.143 67.639 43.946 67.639C35.111 67.639 27.948 60.477 27.948 51.641C27.948 42.805 35.111 35.643 43.946 35.643C45.518 35.643 47.036 35.875 48.469 36.297C50.664 33.47 54.087 31.643 57.944 31.643C64.571 31.643 69.943 37.016 69.943 43.641C69.942 45.156 69.649 46.602 69.137 47.936ZM31.947 51.641C31.947 58.268 37.318 63.639 43.945 63.639C47.561 63.639 56.924 63.639 59.943 63.639C64.361 63.639 67.942 60.057 67.942 55.641C67.942 51.223 64.361 47.641 59.943 47.641C58.343 47.641 56.86 48.123 55.61 48.932C54.379 43.616 49.636 39.643 43.945 39.643C37.318 39.643 31.947 45.014 31.947 51.641ZM57.943 35.643C55.731 35.643 53.728 36.541 52.281 37.992C54.621 39.428 56.566 41.445 57.91 43.846C58.574 43.733 59.247 43.641 59.943 43.641C62.068 43.641 64.062 44.2 65.793 45.168C65.889 44.674 65.943 44.164 65.943 43.641C65.943 39.225 62.361 35.643 57.943 35.643ZM57.943 27.643C56.839 27.643 55.944 26.748 55.944 25.644V21.645C55.944 20.54 56.84 19.645 57.943 19.645C59.048 19.645 59.943 20.54 59.943 21.645V25.644C59.943 26.749 59.049 27.643 57.943 27.643ZM43.803 32.329L40.976 29.502C40.195 28.721 40.195 27.454 40.976 26.674C41.756 25.893 43.023 25.893 43.803 26.674L46.631 29.502C47.412 30.282 47.412 31.549 46.631 32.329C45.851 33.11 44.584 33.11 43.803 32.329Z" fill="white"/>
</svg>
