<svg width="100" height="100" viewBox="0 0 100 100" fill="none" xmlns="http://www.w3.org/2000/svg">
<path fill-rule="evenodd" clip-rule="evenodd" d="M59.943 41.642C59.247 41.642 58.574 41.734 57.91 41.847C55.174 36.955 49.949 33.644 43.945 33.644C35.11 33.644 27.947 40.806 27.947 49.641C27.947 55.633 31.247 60.848 36.124 63.588C36.4 62.326 37.016 61.123 37.997 60.143L38.054 60.086C34.41 58.025 31.948 54.123 31.948 49.641C31.948 43.015 37.32 37.643 43.946 37.643C49.637 37.643 54.379 41.617 55.611 46.933C56.861 46.123 58.344 45.642 59.944 45.642C64.362 45.642 67.943 49.223 67.943 53.641C67.943 57.084 65.761 60.012 62.708 61.139C63.496 62.285 63.902 63.61 63.93 64.946C68.595 63.301 71.944 58.868 71.944 53.641C71.942 47.014 66.57 41.642 59.943 41.642ZM42.945 60.85L40.824 62.971C39.653 64.143 39.653 66.041 40.824 67.213C41.996 68.385 43.895 68.385 45.066 67.213C46.238 66.041 46.238 64.143 45.066 62.971L42.945 60.85ZM49.945 68.848L47.824 70.969C46.652 72.141 46.652 74.041 47.824 75.211C48.995 76.383 50.894 76.383 52.065 75.211C53.237 74.041 53.237 72.141 52.065 70.969L49.945 68.848ZM56.944 60.85L54.823 62.971C53.651 64.143 53.651 66.041 54.823 67.213C55.994 68.385 57.893 68.385 59.065 67.213C60.236 66.041 60.236 64.143 59.065 62.971L56.944 60.85Z" fill="white"/>
</svg>
