<svg width="100" height="100" viewBox="0 0 100 100" fill="none" xmlns="http://www.w3.org/2000/svg">
<path fill-rule="evenodd" clip-rule="evenodd" d="M59.659 46.733L57.701 47.863C57.889 48.545 57.999 49.259 57.999 50C57.999 50.742 57.89 51.456 57.701 52.138L59.659 53.268C60.615 53.821 60.943 55.043 60.39 56C59.838 56.956 58.616 57.284 57.659 56.731L55.705 55.603C54.702 56.623 53.428 57.369 52 57.737V59.999C52 61.103 51.104 61.999 50 61.999C48.896 61.999 48 61.103 48 59.999V57.737C46.572 57.369 45.297 56.623 44.295 55.603L42.341 56.731C41.384 57.284 40.161 56.956 39.61 56C39.057 55.043 39.385 53.82 40.341 53.268L42.299 52.138C42.11 51.456 42.001 50.742 42.001 50C42.001 49.259 42.109 48.545 42.299 47.863L40.341 46.733C39.385 46.18 39.057 44.958 39.61 44.001C40.162 43.045 41.384 42.717 42.341 43.27L44.295 44.398C45.297 43.378 46.572 42.632 48 42.264V40.002C48 38.898 48.896 38.002 50 38.002C51.104 38.002 52 38.898 52 40.002V42.264C53.428 42.632 54.702 43.378 55.705 44.398L57.659 43.27C58.616 42.717 59.839 43.045 60.39 44.001C60.943 44.958 60.615 46.181 59.659 46.733ZM50 46.001C47.791 46.001 46 47.792 46 50C46 52.209 47.791 54 50 54C52.209 54 53.999 52.209 53.999 50C53.999 47.792 52.209 46.001 50 46.001Z" fill="white"/>
</svg>
