<svg width="100" height="100" viewBox="0 0 100 100" fill="none" xmlns="http://www.w3.org/2000/svg">
<path fill-rule="evenodd" clip-rule="evenodd" d="M63.999 64.943V60.562C66.388 59.177 67.998 56.599 67.998 53.64C67.998 49.224 64.417 45.642 59.999 45.642C58.399 45.642 56.916 46.122 55.666 46.933C54.435 41.616 49.692 37.642 44.001 37.642C37.374 37.642 32.003 43.015 32.003 49.642C32.003 53.191 33.553 56.371 36.003 58.566V63.482C31.226 60.714 28.003 55.56 28.003 49.642C28.003 40.806 35.166 33.643 44.001 33.643C50.005 33.643 55.23 36.955 57.966 41.847C58.63 41.734 59.303 41.642 59.999 41.642C66.626 41.642 71.998 47.015 71.998 53.64C71.998 58.863 68.655 63.293 63.999 64.943ZM42.001 57.641C43.106 57.641 44.001 58.537 44.001 59.641C44.001 60.746 43.106 61.641 42.001 61.641C40.897 61.641 40.002 60.746 40.002 59.641C40.002 58.537 40.897 57.641 42.001 57.641ZM42.001 65.641C43.106 65.641 44.001 66.536 44.001 67.641C44.001 68.745 43.106 69.639 42.001 69.639C40.897 69.639 40.002 68.744 40.002 67.641C40.002 66.535 40.897 65.641 42.001 65.641ZM50.001 61.641C51.105 61.641 52.001 62.536 52.001 63.641C52.001 64.745 51.105 65.641 50.001 65.641C48.896 65.641 48.001 64.745 48.001 63.641C48.001 62.535 48.896 61.641 50.001 61.641ZM50.001 69.639C51.105 69.639 52.001 70.535 52.001 71.639C52.001 72.744 51.105 73.639 50.001 73.639C48.896 73.639 48.001 72.744 48.001 71.639C48.001 70.535 48.896 69.639 50.001 69.639ZM57.999 57.641C59.104 57.641 59.999 58.537 59.999 59.641C59.999 60.746 59.104 61.641 57.999 61.641C56.895 61.641 56 60.746 56 59.641C56 58.537 56.896 57.641 57.999 57.641ZM57.999 65.641C59.104 65.641 59.999 66.536 59.999 67.641C59.999 68.745 59.104 69.639 57.999 69.639C56.895 69.639 56 68.744 56 67.641C56 66.535 56.896 65.641 57.999 65.641Z" fill="white"/>
</svg>
