<svg width="100" height="100" viewBox="0 0 100 100" fill="none" xmlns="http://www.w3.org/2000/svg">
<path fill-rule="evenodd" clip-rule="evenodd" d="M61.998 65.461V61.379C65.446 60.488 67.998 57.367 67.998 53.641C67.998 49.224 64.416 45.642 59.999 45.642C58.398 45.642 56.915 46.122 55.665 46.933C54.434 41.616 49.692 37.642 44.001 37.642C37.374 37.642 32.002 43.015 32.002 49.642C32.002 54.08 34.419 57.947 38.001 60.021V64.466C32.141 62.091 28.003 56.353 28.003 49.641C28.003 40.806 35.165 33.642 44.001 33.642C50.005 33.642 55.23 36.954 57.966 41.846C58.63 41.733 59.302 41.641 59.999 41.641C66.625 41.641 71.997 47.014 71.997 53.639C71.997 59.586 67.671 64.506 61.998 65.461ZM43.072 59.641C43.625 58.684 44.847 58.358 45.804 58.909L48 60.176V57.641C48 56.537 48.896 55.641 50 55.641C51.104 55.641 52 56.537 52 57.641V60.176L54.195 58.908C55.152 58.357 56.375 58.683 56.926 59.64C57.479 60.597 57.151 61.82 56.195 62.372L53.999 63.64L56.195 64.908C57.151 65.461 57.479 66.683 56.926 67.64C56.374 68.595 55.152 68.923 54.195 68.37L52 67.104V69.639C52 70.744 51.104 71.639 50 71.639C48.896 71.639 48 70.744 48 69.639V67.104L45.805 68.372C44.848 68.925 43.625 68.597 43.073 67.642C42.521 66.685 42.848 65.462 43.805 64.91L46 63.641L43.805 62.373C42.848 61.82 42.521 60.598 43.072 59.641ZM50 65.641C51.104 65.641 52 64.745 52 63.641C52 62.536 51.104 61.641 50 61.641C48.896 61.641 48 62.536 48 63.641C48 64.744 48.896 65.641 50 65.641Z" fill="white"/>
</svg>
