<svg width="100" height="100" viewBox="0 0 100 100" fill="none" xmlns="http://www.w3.org/2000/svg">
<path fill-rule="evenodd" clip-rule="evenodd" d="M63.999 64.941V60.56C66.388 59.177 67.998 56.599 67.998 53.64C67.998 49.223 64.417 45.641 60 45.641C58.399 45.641 56.916 46.121 55.666 46.932C54.435 41.615 49.692 37.642 44.001 37.642C37.375 37.642 32.003 43.014 32.003 49.64C32.003 53.19 33.553 56.368 36.002 58.565V63.481C31.226 60.713 28.004 55.559 28.004 49.64C28.004 40.805 35.166 33.643 44.001 33.643C50.005 33.643 55.23 36.954 57.967 41.846C58.63 41.733 59.303 41.641 60 41.641C66.626 41.641 71.998 47.013 71.998 53.64C71.998 58.863 68.656 63.293 63.999 64.941ZM42.002 65.639C40.898 65.639 41.002 64.744 41.002 63.641V55.641C41.002 54.537 40.898 53.641 42.002 53.641C43.106 53.641 43.002 54.537 43.002 55.641V63.641C43.002 64.744 43.106 65.639 42.002 65.639ZM42.002 69.639C43.106 69.639 44.001 70.535 44.001 71.639C44.001 72.744 43.106 73.639 42.002 73.639C40.898 73.639 40.002 72.744 40.002 71.639C40.002 70.535 40.897 69.639 42.002 69.639ZM50.001 69.639C48.897 69.639 49.001 68.744 49.001 67.639V59.641C49.001 58.536 48.897 57.641 50.001 57.641C51.105 57.641 51.001 58.536 51.001 59.641V67.639C51.001 68.744 51.105 69.639 50.001 69.639ZM50.001 73.639C51.105 73.639 52 74.534 52 75.639C52 76.743 51.105 77.639 50.001 77.639C48.897 77.639 48.001 76.743 48.001 75.639C48.001 74.533 48.896 73.639 50.001 73.639ZM58 65.639C56.896 65.639 57 64.744 57 63.641V55.641C57 54.537 56.896 53.641 58 53.641C59.104 53.641 59 54.537 59 55.641V63.641C59 64.744 59.104 65.639 58 65.639ZM58 69.639C59.104 69.639 60 70.535 60 71.639C60 72.744 59.104 73.639 58 73.639C56.896 73.639 56 72.744 56 71.639C56 70.535 56.896 69.639 58 69.639Z" fill="white"/>
</svg>
