<svg width="100" height="100" viewBox="0 0 100 100" fill="none" xmlns="http://www.w3.org/2000/svg">
<path fill-rule="evenodd" clip-rule="evenodd" d="M50 67.867C45.582 67.867 42 64.285 42 59.867C42 57.842 42.76 55.998 44 54.588V37.871C44 34.558 46.686 31.871 50 31.871C53.312 31.871 56 34.558 56 37.871V54.588C57.24 55.998 57.998 57.842 57.998 59.867C57.998 64.285 54.418 67.867 50 67.867ZM52 56.422V52.131V41.87V37.871C52 36.767 51.104 35.871 50 35.871C48.895 35.871 48 36.767 48 37.871V41.87V52.131V56.422C46.811 57.115 46 58.391 46 59.867C46 62.076 47.791 63.867 50 63.867C52.209 63.867 54 62.076 54 59.867C54 58.391 53.189 57.115 52 56.422ZM50 62.867C48.344 62.867 47 61.523 47 59.867C47 58.562 47.838 57.465 49 57.051V41.807V37.87C49 37.317 49.447 36.87 50 36.87C50.553 36.87 51 37.317 51 37.87V41.807V57.051C52.162 57.465 53 58.563 53 59.867C53 61.523 51.656 62.867 50 62.867Z" fill="white"/>
</svg>
