<svg width="100" height="100" viewBox="0 0 100 100" fill="none" xmlns="http://www.w3.org/2000/svg">
<path fill-rule="evenodd" clip-rule="evenodd" d="M50 67.997C45.583 67.997 42.001 64.416 42.001 59.998C42.001 57.973 42.76 56.129 44.001 54.72V38.001C44.001 34.688 46.688 32.002 50 32.002C53.313 32.002 56 34.688 56 38.001V54.72C57.24 56.129 57.999 57.973 57.999 59.998C57.999 64.416 54.418 67.997 50 67.997ZM52 56.553V52.261V42V38.001C52 36.897 51.104 36.001 50 36.001C48.896 36.001 48.001 36.897 48.001 38.001V42V52.261V56.553C46.811 57.246 46.001 58.522 46.001 59.998C46.001 62.207 47.792 63.997 50 63.997C52.209 63.997 54 62.207 54 59.998C54 58.521 53.19 57.246 52 56.553ZM50 62.998C48.344 62.998 47.001 61.654 47.001 59.998C47.001 58.342 48.344 56.998 50 56.998C51.657 56.998 53 58.342 53 59.998C53 61.654 51.657 62.998 50 62.998Z" fill="white"/>
</svg>
