<svg width="100" height="100" viewBox="0 0 100 100" fill="none" xmlns="http://www.w3.org/2000/svg">
<path fill-rule="evenodd" clip-rule="evenodd" d="M65.999 52H62.999C61.894 52 60.999 51.105 60.999 50.001C60.999 48.897 61.894 48.001 62.999 48.001H65.999C67.103 48.001 67.999 47.105 67.999 46.002C67.999 44.897 67.103 44.002 65.999 44.002C64.894 44.002 63.999 43.106 63.999 42.002C63.999 40.898 64.894 40.002 65.999 40.002C66.136 40.002 66.27 40.016 66.401 40.043C69.522 40.254 71.997 42.826 71.997 46.002C71.997 49.314 69.312 52 65.999 52ZM55.999 48.001H53.999H47.001H34.002C32.898 48.001 32.003 48.897 32.003 50.001C32.003 51.105 32.898 52 34.002 52H36.002H40.001H43.001H47.001H50.001H53.999H55.999C59.313 52 61.999 54.687 61.999 58C61.999 61.176 59.524 63.748 56.403 63.959C56.272 63.986 56.138 64 55.999 64C54.895 64 53.999 63.104 53.999 62C53.999 60.895 54.895 60 55.999 60C57.104 60 57.999 59.104 57.999 58C57.999 56.896 57.104 56 55.999 56H53.999H50.001H47.001H43.001H40.001H36.002H34.002C30.689 56 28.003 53.314 28.003 50.001C28.003 46.826 30.478 44.254 33.599 44.042C33.73 44.016 33.865 44.002 34.002 44.002H47.001H53.999H55.999C57.104 44.002 57.999 43.106 57.999 42.002C57.999 40.898 57.104 40.002 55.999 40.002C54.895 40.002 53.999 39.107 53.999 38.002C53.999 36.898 54.895 36.002 55.999 36.002C56.138 36.002 56.272 36.017 56.403 36.043C59.524 36.254 61.999 38.826 61.999 42.002C61.999 45.314 59.313 48.001 55.999 48.001Z" fill="white"/>
</svg>
