<svg width="100" height="100" viewBox="0 0 100 100" fill="none" xmlns="http://www.w3.org/2000/svg">
<path fill-rule="evenodd" clip-rule="evenodd" d="M50 61.998C43.373 61.998 38.001 56.626 38.001 50C38.001 43.373 43.373 38.001 50 38.001C50.755 38.001 51.491 38.079 52.207 38.213C52.075 38.789 51.999 39.386 51.999 40.001C51.999 44.419 55.581 48 59.999 48C60.614 48 61.211 47.924 61.787 47.792C61.92 48.509 61.998 49.244 61.998 50C61.998 56.626 56.626 61.998 50 61.998ZM48.212 42.208C44.656 43.021 42.001 46.197 42.001 50C42.001 54.417 45.582 57.999 50 57.999C53.802 57.999 56.978 55.344 57.791 51.788C52.937 50.884 49.115 47.062 48.212 42.208Z" fill="white"/>
</svg>
