<svg width="100" height="100" viewBox="0 0 100 100" fill="none" xmlns="http://www.w3.org/2000/svg">
<path fill-rule="evenodd" clip-rule="evenodd" d="M69.819 46.758C70.436 47.638 70.921 48.612 71.288 49.642H71.307H66.92C65.536 47.253 62.958 45.643 59.999 45.643C58.399 45.643 56.917 46.123 55.666 46.933C54.435 41.617 49.692 37.643 44.001 37.643C37.375 37.643 32.003 43.015 32.003 49.642H28.003C28.003 40.807 35.166 33.644 44.001 33.644C46.004 33.644 47.915 34.02 49.681 34.692C51.316 30.009 55.76 26.645 60.999 26.645C61.755 26.645 62.491 26.723 63.207 26.856C63.075 27.432 62.999 28.029 62.999 28.645C62.999 33.063 66.581 36.643 70.998 36.643C71.614 36.643 72.21 36.567 72.786 36.436C72.92 37.153 72.998 37.888 72.998 38.643C72.998 41.777 71.786 44.621 69.819 46.758ZM59.212 30.852C56.312 31.515 54.037 33.762 53.288 36.626C55.204 37.998 56.809 39.779 57.966 41.848C58.63 41.734 59.304 41.643 59.999 41.643C62.618 41.643 65.032 42.491 67.005 43.914C67.863 42.934 68.49 41.745 68.79 40.432C63.937 39.527 60.115 35.706 59.212 30.852ZM30.003 53.641H69.999C71.103 53.641 71.998 54.537 71.998 55.641C71.998 56.745 71.102 57.641 69.999 57.641H30.003C28.899 57.641 28.003 56.745 28.003 55.641C28.003 54.537 28.899 53.641 30.003 53.641ZM30.003 61.641H69.999C71.103 61.641 71.998 62.536 71.998 63.64C71.998 64.744 71.102 65.64 69.999 65.64H30.003C28.899 65.64 28.003 64.744 28.003 63.64C28.003 62.536 28.899 61.641 30.003 61.641ZM30.003 69.639H69.999C71.103 69.639 71.998 70.535 71.998 71.639C71.998 72.743 71.102 73.639 69.999 73.639H30.003C28.899 73.639 28.003 72.743 28.003 71.639C28.003 70.535 28.899 69.639 30.003 69.639Z" fill="white"/>
</svg>
