<svg width="100" height="100" viewBox="0 0 100 100" fill="none" xmlns="http://www.w3.org/2000/svg">
<path fill-rule="evenodd" clip-rule="evenodd" d="M50.001 57.641C48.896 57.641 48.001 58.536 48.001 59.641V75.639C48.001 76.743 48.896 77.639 50.001 77.639C51.105 77.639 52.001 76.743 52.001 75.639V59.641C52.001 58.535 51.104 57.641 50.001 57.641ZM57.999 53.641C56.895 53.641 56 54.537 56 55.641V71.639C56 72.744 56.896 73.639 57.999 73.639C59.104 73.639 59.999 72.744 59.999 71.639V55.641C59.999 54.537 59.104 53.641 57.999 53.641ZM42.001 53.641C40.897 53.641 40.002 54.537 40.002 55.641V71.639C40.002 72.744 40.898 73.639 42.001 73.639C43.106 73.639 44.001 72.744 44.001 71.639V55.641C44.001 54.537 43.106 53.641 42.001 53.641ZM72.997 38.642C72.997 37.888 72.919 37.152 72.786 36.435C72.21 36.567 71.613 36.643 70.998 36.643C66.58 36.643 62.999 33.062 62.999 28.644C62.999 28.029 63.075 27.431 63.206 26.856C62.49 26.722 61.755 26.644 60.999 26.644C55.759 26.644 51.315 30.009 49.681 34.691C47.915 34.019 46.003 33.644 44.001 33.644C35.166 33.644 28.003 40.806 28.003 49.641C28.003 55.56 31.226 60.715 36.003 63.482V58.566C33.553 56.369 32.003 53.191 32.003 49.641C32.003 43.015 37.374 37.643 44.001 37.643C49.692 37.643 54.435 41.616 55.666 46.933C56.916 46.122 58.399 45.642 59.999 45.642C64.417 45.642 67.998 49.223 67.998 53.641C67.998 56.6 66.388 59.178 63.999 60.561V64.942C68.655 63.294 71.998 58.864 71.998 53.641C71.998 51.079 71.187 48.708 69.818 46.759C71.786 44.621 72.997 41.777 72.997 38.642ZM67.005 43.914C65.032 42.49 62.617 41.643 59.999 41.643C59.303 41.643 58.63 41.735 57.966 41.848C56.81 39.78 55.204 37.999 53.287 36.627C54.037 33.762 56.311 31.516 59.211 30.852C60.115 35.707 63.937 39.528 68.79 40.432C68.489 41.746 67.862 42.933 67.005 43.914Z" fill="white"/>
</svg>
