<svg width="100" height="100" viewBox="0 0 100 100" fill="none" xmlns="http://www.w3.org/2000/svg">
<path fill-rule="evenodd" clip-rule="evenodd" d="M69.819 46.758C70.823 48.189 71.518 49.848 71.822 51.641H71.818C71.927 52.293 71.998 52.958 71.998 53.641C71.998 60.268 66.626 65.64 59.999 65.64C59.72 65.64 59.351 65.64 58.937 65.64L62.521 61.228C65.702 60.171 67.999 57.177 67.999 53.641C67.999 52.95 67.901 52.282 67.736 51.641C66.846 48.194 63.725 45.642 59.999 45.642C58.399 45.642 56.917 46.123 55.666 46.933C54.435 41.617 49.692 37.643 44.001 37.643C37.375 37.643 32.003 43.015 32.003 49.642C32.003 50.325 32.073 50.99 32.183 51.641H32.169C32.933 56.189 36.257 59.864 40.607 61.146L39.257 64.924C33.354 63.093 28.926 57.933 28.141 51.641C28.059 50.985 28.002 50.321 28.002 49.642C28.002 40.806 35.165 33.644 44 33.644C46.003 33.644 47.914 34.019 49.68 34.692C51.315 30.009 55.759 26.645 60.998 26.645C61.754 26.645 62.49 26.723 63.206 26.856C63.074 27.432 62.998 28.029 62.998 28.644C62.998 33.062 66.58 36.643 70.997 36.643C71.613 36.643 72.209 36.567 72.785 36.436C72.919 37.152 72.997 37.888 72.997 38.643C72.998 41.776 71.786 44.621 69.819 46.758ZM59.212 30.852C56.312 31.515 54.037 33.761 53.288 36.626C55.204 37.998 56.809 39.779 57.966 41.848C58.63 41.734 59.304 41.643 59.999 41.643C62.618 41.643 65.032 42.491 67.005 43.914C67.863 42.935 68.49 41.746 68.79 40.432C63.937 39.526 60.115 35.706 59.212 30.852ZM48.001 51.641H58L52.001 61.64H59L46.001 77.638L49.601 65.64H43.002L48.001 51.641Z" fill="white"/>
</svg>
