<svg width="100" height="100" viewBox="0 0 100 100" fill="none" xmlns="http://www.w3.org/2000/svg">
<path fill-rule="evenodd" clip-rule="evenodd" d="M69.818 46.759C71.187 48.708 71.998 51.078 71.998 53.64C71.998 58.863 68.656 63.292 63.999 64.943V60.562C66.388 59.177 67.998 56.599 67.998 53.64C67.998 49.223 64.417 45.641 59.999 45.641C58.399 45.641 56.916 46.121 55.666 46.932C54.434 41.615 49.692 37.641 44.001 37.641C37.375 37.641 32.003 43.014 32.003 49.641C32.003 53.19 33.553 56.37 36.002 58.565V63.481C31.226 60.713 28.003 55.559 28.003 49.641C28.003 40.806 35.166 33.642 44.001 33.642C46.003 33.642 47.915 34.018 49.681 34.69C51.316 30.008 55.759 26.643 60.999 26.643C61.754 26.643 62.49 26.721 63.207 26.854C63.075 27.43 62.999 28.028 62.999 28.643C62.999 33.061 66.58 36.641 70.998 36.641C71.613 36.641 72.21 36.566 72.786 36.434C72.92 37.151 72.998 37.887 72.998 38.641C72.998 41.777 71.786 44.621 69.818 46.759ZM59.211 30.852C56.311 31.516 54.037 33.762 53.287 36.627C55.204 37.999 56.809 39.779 57.966 41.848C58.63 41.735 59.303 41.643 59.999 41.643C62.617 41.643 65.032 42.49 67.004 43.914C67.863 42.934 68.49 41.747 68.79 40.432C63.936 39.527 60.115 35.706 59.211 30.852ZM43.073 59.641C43.625 58.684 44.848 58.358 45.804 58.909L48 60.177V57.642C48 56.538 48.896 55.642 50 55.642C51.104 55.642 51.999 56.538 51.999 57.642V60.177L54.195 58.909C55.151 58.358 56.375 58.684 56.926 59.641C57.479 60.598 57.151 61.821 56.195 62.373L54 63.641L56.196 64.909C57.152 65.462 57.48 66.684 56.927 67.641C56.375 68.596 55.152 68.924 54.196 68.371L52 67.104V69.639C52 70.744 51.104 71.639 50.001 71.639C48.897 71.639 48.001 70.744 48.001 69.639V67.104L45.805 68.372C44.849 68.925 43.625 68.597 43.074 67.642C42.522 66.685 42.849 65.462 43.805 64.91L46.001 63.642L43.805 62.374C42.849 61.82 42.521 60.598 43.073 59.641ZM50.001 65.641C51.105 65.641 52 64.745 52 63.641C52 62.536 51.104 61.641 50.001 61.641C48.897 61.641 48.001 62.536 48.001 63.641C48.001 64.744 48.896 65.641 50.001 65.641Z" fill="white"/>
</svg>
