<svg width="100" height="100" viewBox="0 0 100 100" fill="none" xmlns="http://www.w3.org/2000/svg">
<path fill-rule="evenodd" clip-rule="evenodd" d="M69.817 46.759C71.186 48.708 71.997 51.078 71.997 53.64C71.997 58.863 68.655 63.292 63.999 64.943V60.562C66.387 59.177 67.998 56.599 67.998 53.64C67.998 49.223 64.417 45.641 59.999 45.641C58.398 45.641 56.915 46.121 55.665 46.932C54.434 41.615 49.692 37.641 44.001 37.641C37.374 37.641 32.003 43.014 32.003 49.641C32.003 53.19 33.553 56.37 36.002 58.565V63.481C31.225 60.713 28.003 55.559 28.003 49.641C28.003 40.806 35.165 33.642 44.001 33.642C46.003 33.642 47.915 34.018 49.681 34.69C51.316 30.008 55.759 26.643 60.999 26.643C61.754 26.643 62.489 26.721 63.206 26.854C63.075 27.43 62.999 28.028 62.999 28.643C62.999 33.061 66.579 36.641 70.997 36.641C71.613 36.641 72.21 36.566 72.786 36.434C72.919 37.151 72.997 37.887 72.997 38.641C72.997 41.777 71.786 44.621 69.817 46.759ZM59.21 30.852C56.311 31.516 54.036 33.762 53.286 36.627C55.204 37.999 56.809 39.779 57.966 41.848C58.63 41.735 59.302 41.643 59.999 41.643C62.616 41.643 65.032 42.491 67.004 43.914C67.862 42.934 68.489 41.747 68.79 40.432C63.936 39.527 60.114 35.706 59.21 30.852ZM42.001 57.641C43.105 57.641 44.001 58.537 44.001 59.641C44.001 60.746 43.105 61.641 42.001 61.641C40.897 61.641 40.001 60.746 40.001 59.641C40.001 58.537 40.896 57.641 42.001 57.641ZM42.001 65.641C43.105 65.641 44.001 66.536 44.001 67.641C44.001 68.745 43.105 69.639 42.001 69.639C40.897 69.639 40.001 68.744 40.001 67.641C40.001 66.535 40.896 65.641 42.001 65.641ZM50 61.641C51.104 61.641 52 62.536 52 63.641C52 64.745 51.104 65.641 50 65.641C48.896 65.641 48.001 64.745 48.001 63.641C48.001 62.535 48.896 61.641 50 61.641ZM50 69.639C51.104 69.639 52 70.535 52 71.639C52 72.744 51.104 73.639 50 73.639C48.896 73.639 48.001 72.744 48.001 71.639C48.001 70.535 48.896 69.639 50 69.639ZM57.999 57.641C59.103 57.641 59.999 58.537 59.999 59.641C59.999 60.746 59.103 61.641 57.999 61.641C56.895 61.641 55.999 60.746 55.999 59.641C55.999 58.537 56.895 57.641 57.999 57.641ZM57.999 65.641C59.103 65.641 59.999 66.536 59.999 67.641C59.999 68.745 59.103 69.639 57.999 69.639C56.895 69.639 55.999 68.744 55.999 67.641C55.999 66.535 56.895 65.641 57.999 65.641Z" fill="white"/>
</svg>
