<svg width="100" height="100" viewBox="0 0 100 100" fill="none" xmlns="http://www.w3.org/2000/svg">
<path fill-rule="evenodd" clip-rule="evenodd" d="M43.945 65.639C35.11 65.639 27.947 58.477 27.947 49.641C27.947 40.805 35.11 33.643 43.945 33.643C49.949 33.643 55.174 36.955 57.91 41.846C58.574 41.733 59.248 41.641 59.943 41.641C66.57 41.641 71.942 47.014 71.942 53.641C71.942 60.266 66.57 65.639 59.943 65.639C57.168 65.639 47.143 65.639 43.945 65.639ZM59.943 61.639C64.361 61.639 67.943 58.057 67.943 53.641C67.943 49.223 64.361 45.641 59.943 45.641C58.343 45.641 56.861 46.122 55.61 46.932C54.379 41.616 49.636 37.642 43.945 37.642C37.319 37.642 31.947 43.014 31.947 49.641C31.947 56.267 37.319 61.639 43.945 61.639C47.562 61.639 56.924 61.639 59.943 61.639Z" fill="white"/>
</svg>
